<?xml version="1.0" standalone="no"?><!DOCTYPE svg PUBLIC "-//W3C//DTD SVG 1.1//EN" "http://www.w3.org/Graphics/SVG/1.1/DTD/svg11.dtd"><svg t="1767974150754" class="icon" viewBox="0 0 1024 1024" version="1.1" xmlns="http://www.w3.org/2000/svg" p-id="1512" xmlns:xlink="http://www.w3.org/1999/xlink" width="200" height="200"><path d="M841.8816 188.2624l-52.7872-71.68v-25.344a26.9312 26.9312 0 0 0-26.9312-26.9312H261.9904a26.9312 26.9312 0 0 0-26.9312 26.9312v25.1392l-52.9408 71.68a75.8784 75.8784 0 0 0-7.424 32.6656v632.32a75.5712 75.5712 0 0 0 15.36 45.5168l33.1776 44.0832a51.2 51.2 0 0 0 40.96 20.48h496.0256a51.2 51.2 0 0 0 40.96-20.48l33.1776-44.0832a75.5712 75.5712 0 0 0 15.36-45.5168V220.928a75.8784 75.8784 0 0 0-7.8336-32.6656z" fill="#EA7373" p-id="1513"></path><path d="M841.8816 188.2624l-52.7872-71.68v-25.344a26.9312 26.9312 0 0 0-26.9312-26.9312h-103.3216a26.9824 26.9824 0 0 1 26.9312 26.9312v25.344l52.736 71.68a75.1104 75.1104 0 0 1 7.424 32.6656v632.1152a75.8784 75.8784 0 0 1-15.36 45.5168l-33.2288 44.0832a51.2 51.2 0 0 1-40.96 20.48h103.3216a51.2 51.2 0 0 0 40.96-20.48l33.1776-44.0832a75.5712 75.5712 0 0 0 15.36-45.5168V220.928a75.8784 75.8784 0 0 0-7.3216-32.6656z" fill="#E55353" p-id="1514"></path><path d="M760.0128 978.3808H263.9872a66.56 66.56 0 0 1-53.1456-26.5216l-33.2288-44.0832a91.6992 91.6992 0 0 1-18.2784-54.7328V220.928a90.9312 90.9312 0 0 1 8.96-39.3216 14.9504 14.9504 0 0 1 1.4848-2.4576l49.92-67.84v-20.0704a42.3424 42.3424 0 0 1 42.2912-42.2912h500.1728a42.3424 42.3424 0 0 1 42.2912 42.2912v20.48L854.2208 179.2a14.9504 14.9504 0 0 1 1.4848 2.4576 90.9312 90.9312 0 0 1 8.96 39.3216v632.064a91.6992 91.6992 0 0 1-18.2784 54.7328l-33.2288 44.0832a66.56 66.56 0 0 1-53.1456 26.5216zM195.4304 196.096a60.3648 60.3648 0 0 0-5.376 24.832v632.1152a60.416 60.416 0 0 0 12.1344 36.2496l33.3312 44.1344a35.84 35.84 0 0 0 28.6208 14.2336h496.0256a35.84 35.84 0 0 0 28.3136-14.2848l33.1776-44.0832a60.416 60.416 0 0 0 12.1344-36.2496V220.928a60.3648 60.3648 0 0 0-5.12-24.832L776.704 125.6448a15.36 15.36 0 0 1-2.9696-9.0624v-25.344a11.5712 11.5712 0 0 0-11.5712-11.5712H261.9904a11.5712 11.5712 0 0 0-11.5712 11.5712v25.1392a15.36 15.36 0 0 1-3.0208 9.1136z" fill="#3C122C" p-id="1515"></path><path d="M174.6944 847.5648c84.8896-4.3008 230.4-21.6064 323.6864-87.4496 114.944-80.9984 235.52-112.64 350.9248-79.616V220.928a75.8784 75.8784 0 0 0-7.424-32.6656l-14.8992-20.48c-83.1488-15.0016-229.6832-28.8768-333.1584 31.3856C363.8784 275.0464 302.08 342.3232 174.6944 361.0624z" fill="#E8A284" p-id="1516"></path><path d="M826.9824 168.0384a804.9152 804.9152 0 0 0-112.64-12.4928l24.064 32.7168a75.1104 75.1104 0 0 1 7.424 32.6656v446.8736a331.8784 331.8784 0 0 1 103.3728 12.6976V220.928a75.8784 75.8784 0 0 0-7.424-32.6656z" fill="#D57B84" p-id="1517"></path><path d="M174.6944 857.8048a10.24 10.24 0 0 1-10.24-10.24v-486.4a10.24 10.24 0 0 1 8.7552-10.24c88.576-13.0048 145.3056-50.6368 217.1904-98.2528 28.5696-18.8928 60.928-40.3968 98.304-62.1056 107.52-62.464 259.1232-47.2576 340.1216-32.6144a10.24 10.24 0 0 1 6.4 3.9936l14.6944 20.224a10.5984 10.5984 0 0 1 0.9728 1.6384 86.3232 86.3232 0 0 1 8.448 37.12v459.5712a10.24 10.24 0 0 1-4.096 8.192 10.24 10.24 0 0 1-8.96 1.6384c-107.52-30.72-225.8432-3.84-342.2208 78.1824-96.5632 68.0448-247.6032 85.1456-329.0624 89.2416z m10.24-487.9872v466.8928c81.2032-5.12 219.2384-22.6816 307.5584-84.9408 116.9408-82.432 236.4928-111.5648 346.5728-84.5824V220.928a65.9456 65.9456 0 0 0-6.0416-27.4432l-11.8784-16.0768c-79.104-13.9264-222.2592-27.2896-322.1504 30.72-36.864 21.4528-67.584 41.8304-97.28 61.44-71.68 47.872-128.7168 85.4528-216.7808 100.2496z" fill="#3C122C" p-id="1518"></path><path d="M496.64 330.0352C395.7248 408.4224 263.0656 421.8368 174.6944 420.3008v375.552c137.216-23.1936 216.6272-92.16 311.5008-145.8176 128.6144-72.4992 278.272-49.92 363.1104-27.136v-400.896C746.7008 209.92 631.296 225.28 496.64 330.0352z" fill="#FFFFFF" p-id="1519"></path><path d="M745.9328 603.6992a664.832 664.832 0 0 1 103.3728 19.2v-400.896a454.2464 454.2464 0 0 0-103.3728-1.1264z" fill="#FCE8D0" p-id="1520"></path><path d="M174.6944 806.0928a10.24 10.24 0 0 1-10.24-10.24V420.3008a10.24 10.24 0 0 1 3.072-7.2704 10.24 10.24 0 0 1 7.3216-2.9696c90.2656 1.5872 218.112-12.4416 315.3408-88.064 116.4288-90.624 230.912-125.6448 360.3456-110.1312a10.24 10.24 0 0 1 9.0112 10.24v400.896a10.24 10.24 0 0 1-3.9936 8.1408 10.24 10.24 0 0 1-8.9088 1.7408c-78.1312-20.992-228.1984-45.568-355.4304 26.1632-22.1696 12.4928-44.032 26.2144-65.1264 39.424-70.2464 44.032-142.848 89.5488-249.7024 107.52a9.4208 9.4208 0 0 1-1.6896 0.1024z m10.24-375.4496V783.36c96.4608-18.688 164.4544-61.44 230.4-102.4 21.3504-13.3632 43.3664-27.1872 65.9968-39.8848 126.7712-71.68 273.8688-52.224 357.888-31.4368V231.168C681.4208 215.3472 571.8528 284.3648 502.7328 337.92 404.48 414.72 277.8112 431.104 184.9344 430.6432zM496.64 330.0352z" fill="#3C122C" p-id="1521"></path><path d="M298.0352 647.2192a76.288 76.288 0 0 1-33.4336-6.9632c-11.9808-5.8368-27.3408-18.5344-32.7168-46.08s-0.3584-51.9168 15.36-71.68c35.84-45.4144 113.92-49.664 117.1968-49.8176a15.36 15.36 0 1 1 1.4848 30.72c-0.9216 0-67.7376 3.84-94.5152 38.144-9.9328 12.6464-12.9024 28.0064-9.216 46.848 2.4064 12.1856 7.68 20.0704 16.0768 24.1664 23.1936 11.3152 66.56-5.4272 79.9744-12.1856a15.36 15.36 0 1 1 13.8752 27.392c-5.1712 2.6112-39.8336 19.456-74.0864 19.456zM448.0512 586.0352c-35.84 0-49.0496-16.5888-53.76-27.8016-11.52-27.392 7.68-62.8736 32.9216-81.408C465.92 448.5632 515.072 445.44 537.6 469.76c13.0048 14.1824 16.6912 38.2464 9.2672 59.7504-5.8368 16.6912-23.1424 46.08-74.1888 54.3744a152.1664 152.1664 0 0 1-24.6272 2.1504zM445.44 501.76c-17.8688 13.1584-26.9312 34.8672-22.784 44.7488 3.5328 8.448 20.48 11.2128 44.8512 7.2704 26.1632-4.3008 43.9808-16.4352 50.1248-34.0992 4.1984-12.1856 1.6384-24.0128-2.9184-28.9792-9.9328-11.008-43.008-8.448-69.2736 11.0592zM582.0928 563.2a13.1584 13.1584 0 0 1-2.816-0.3072 15.36 15.36 0 0 1-12.288-17.92l30.1056-160.0512a15.36 15.36 0 0 1 30.1568 5.6832l-30.0544 160.0512a15.36 15.36 0 0 1-15.104 12.544zM672.768 535.7056a40.96 40.96 0 0 1-14.08-2.304c-9.0624-3.3792-24.0128-13.3632-22.4256-42.5472 2.4576-29.952 13.7728-52.5312 33.6384-67.6352 36.6592-27.7504 88.6272-18.0224 90.8288-17.6128a15.36 15.36 0 0 1-5.8368 30.1568c-0.6656 0-40.96-7.3728-66.56 12.032-12.7488 9.728-19.7632 24.4736-21.4528 45.1584 0 5.12 0.3584 10.8544 2.4576 11.6224 13.4144 5.12 55.9104-20.8384 63.1296-30.208a15.36 15.36 0 0 1 24.3712 18.7392c-8.4992 11.1104-51.2 42.5984-84.0704 42.5984z" fill="#3C122C" p-id="1522"></path><path d="M756.0704 535.7568a15.36 15.36 0 0 1-13.1072-7.2704c-33.4848-54.0672 11.6224-130.048 13.568-133.12a15.36 15.36 0 1 1 26.2656 15.872c-0.4608 0.768-37.2736 63.1808-13.7216 101.2224a15.36 15.36 0 0 1-5.12 21.1456 14.8992 14.8992 0 0 1-7.8848 2.1504zM285.5424 228.7104h-35.84a10.24 10.24 0 1 1 0-20.48h35.84a10.24 10.24 0 0 1 0 20.48z" fill="#3C122C" p-id="1523"></path><path d="M267.52 246.6816a10.24 10.24 0 0 1-10.24-10.24v-35.84a10.24 10.24 0 0 1 20.48 0v35.84a10.24 10.24 0 0 1-10.24 10.24zM400.7424 192.6656h-35.84a10.24 10.24 0 0 1 0-20.48h35.84a10.24 10.24 0 0 1 0 20.48z" fill="#3C122C" p-id="1524"></path><path d="M382.7712 210.688a10.24 10.24 0 0 1-10.24-10.24v-35.84a10.24 10.24 0 0 1 20.48 0v35.84a10.24 10.24 0 0 1-10.24 10.24zM699.4432 802.2016a10.24 10.24 0 0 1-10.24-10.24v-35.84a10.24 10.24 0 0 1 20.48 0v35.84a10.24 10.24 0 0 1-10.24 10.24zM597.1456 846.7456a10.24 10.24 0 0 1-10.24-10.24v-35.84a10.24 10.24 0 0 1 20.48 0v35.84a10.24 10.24 0 0 1-10.24 10.24zM786.8416 126.4128H239.7184a10.24 10.24 0 0 1 0-20.48h547.1232a10.24 10.24 0 0 1 0 20.48zM838.5024 901.12h-650.24a10.24 10.24 0 0 1 0-20.48h650.24a10.24 10.24 0 0 1 0 20.48z" fill="#3C122C" p-id="1525"></path><path d="M224.4096 317.952a15.36 15.36 0 0 1-15.36-15.36v-44.2368a15.36 15.36 0 1 1 30.72 0v44.2368a15.36 15.36 0 0 1-15.36 15.36z" fill="#FFFFFF" p-id="1526"></path></svg>