<?xml version="1.0" standalone="no"?><!DOCTYPE svg PUBLIC "-//W3C//DTD SVG 1.1//EN" "http://www.w3.org/Graphics/SVG/1.1/DTD/svg11.dtd"><svg t="1767975911218" class="icon" viewBox="0 0 1024 1024" version="1.1" xmlns="http://www.w3.org/2000/svg" p-id="2069" xmlns:xlink="http://www.w3.org/1999/xlink" width="200" height="200"><path d="M688.7424 665.9584a684.1344 684.1344 0 0 1-109.5168-9.472 49.8176 49.8176 0 0 1 16.0768-98.4064c112.3328 18.3808 201.5232 5.12 250.88-36.7616 27.6992-23.5008 41.728-55.3984 41.728-94.8736a55.1424 55.1424 0 0 0-16.5376-41.8816c-32.512-32.1024-103.7312-38.4-126.208-38.0928a49.8176 49.8176 0 0 1-1.4336-99.584c13.2096 0 129.9968 0 197.5808 66.56a154.6752 154.6752 0 0 1 46.08 112.64c0 69.0176-26.5728 128-76.8 170.8032-53.248 45.8752-128.9216 69.0688-221.8496 69.0688z" fill="#C1E5EF" p-id="2070"></path><path d="M941.4656 313.6512A183.5008 183.5008 0 0 0 906.24 286.72a155.0336 155.0336 0 0 1 37.4784 103.424c0 69.0688-26.5216 128-76.8 170.8544-53.504 45.4656-129.1776 68.608-222.1056 68.608a675.84 675.84 0 0 1-105.4208-8.8064 49.8688 49.8688 0 0 0 39.8848 35.84 684.1344 684.1344 0 0 0 109.5168 9.472c92.928 0 168.6016-23.1936 222.1056-68.6592 50.2784-42.7008 76.8-101.7856 76.8-170.8032a154.6752 154.6752 0 0 0-46.2336-112.9984z" fill="#A6AAED" p-id="2071"></path><path d="M688.6912 681.3184a700.9792 700.9792 0 0 1-111.9744-9.6768 65.1776 65.1776 0 0 1 21.0432-128.6656c107.8784 17.664 192.6144 5.8368 238.6432-33.28 24.064-20.48 36.3008-48.4864 36.3008-83.2a39.6288 39.6288 0 0 0-11.9296-30.72c-26.7776-26.368-89.1904-34.048-115.2-33.6896h-0.6144a65.1776 65.1776 0 0 1-1.28-130.304c13.7216 0 136.3968 0 208.5888 71.168a169.6768 169.6768 0 0 1 50.7904 123.7504c0 73.6768-28.4672 136.8064-82.2784 182.528-56.32 47.9744-134.5024 72.2944-232.0384 72.2944z m-101.4272-108.4416a34.4064 34.4064 0 0 0-27.9552 54.528 34.048 34.048 0 0 0 22.3744 13.8752 663.0912 663.0912 0 0 0 107.008 9.3184c90.0608 0 161.4336-21.8624 212.1728-64.9728 46.6944-39.7312 71.424-94.72 71.424-159.1296a139.8272 139.8272 0 0 0-41.6256-101.888c-63.2832-62.3616-174.08-62.5152-186.5728-62.3104a34.4576 34.4576 0 0 0-33.9456 34.9184 34.7648 34.7648 0 0 0 34.9696 33.9456c25.6-0.4096 100.608 6.5024 137.1648 42.496a70.5536 70.5536 0 0 1 21.0944 52.8384c0 44.1856-15.872 80.0256-47.104 106.5984-53.0432 45.056-146.6368 59.3408-263.4752 40.192a34.56 34.56 0 0 0-5.5296-0.4096z" fill="#3C122C" p-id="2072"></path><path d="M823.7568 196.5568a28.5696 28.5696 0 0 1 28.5696 26.624c2.9696 45.1072 2.304 138.9056-44.0832 213.5552-51.2 81.92-100.3008 192.7168-124.8256 260.2496a61.9008 61.9008 0 0 1-58.2656 40.6528H264.4992a61.7984 61.7984 0 0 1-58.2144-40.6528c-24.5248-67.5328-73.7792-178.1248-124.8256-260.2496-46.3872-74.6496-47.104-168.448-44.1344-213.5552a28.6208 28.6208 0 0 1 28.5696-26.624z" fill="#F4DAB5" p-id="2073"></path><path d="M852.3264 223.1808a28.5696 28.5696 0 0 0-28.5696-26.624h-28.7744c0 49.5616-7.168 123.4432-45.1072 184.32-51.2 81.92-100.3008 192.7168-124.8256 260.1984a61.952 61.952 0 0 1-58.2144 40.704H200.5504c2.048 5.12 3.9424 10.24 5.7344 15.36a61.7984 61.7984 0 0 0 58.2144 40.6528h360.6528a61.9008 61.9008 0 0 0 58.2656-40.6528c24.5248-67.5328 73.7792-178.1248 124.8256-260.2496 46.3872-74.8032 47.0528-168.6016 44.0832-213.7088z" fill="#E8A284" p-id="2074"></path><path d="M625.152 752.9984H264.4992a77.4144 77.4144 0 0 1-72.6528-50.7904C167.0656 634.0096 117.76 524.3904 68.4032 444.8256 20.48 367.5136 18.688 272.128 22.016 222.1568a44.0832 44.0832 0 0 1 43.8784-40.96h757.76a44.032 44.032 0 0 1 43.8784 40.96c3.328 49.9712 1.6896 145.3568-46.3872 222.6688-49.408 79.5648-98.6112 189.44-123.392 257.3824a77.4656 77.4656 0 0 1-72.6016 50.7904zM65.8944 211.9168a13.2096 13.2096 0 0 0-13.2096 12.288c-3.072 46.08-1.7408 134.4 41.8304 204.4416 50.5856 81.3568 100.864 193.4336 126.208 263.0656a46.592 46.592 0 0 0 43.776 30.72h360.6528a46.7456 46.7456 0 0 0 43.8272-30.72c25.2928-69.632 75.6224-181.7088 126.208-263.0656 43.52-70.0416 44.9024-158.1568 41.8304-204.4416a13.2608 13.2608 0 0 0-13.2608-12.288z" fill="#3C122C" p-id="2075"></path><path d="M87.3472 737.6384m50.432 0l655.104 0q50.432 0 50.432 50.432l0 0q0 50.432-50.432 50.432l-655.104 0q-50.432 0-50.432-50.432l0 0q0-50.432 50.432-50.432Z" fill="#96B4EB" p-id="2076"></path><path d="M813.056 741.888v3.072a50.432 50.432 0 0 1-50.432 50.3808H107.52a50.0736 50.0736 0 0 1-20.1728-4.1984 50.3808 50.3808 0 0 0 50.2272 47.36h655.36a50.432 50.432 0 0 0 50.432-50.432 50.3296 50.3296 0 0 0-30.3104-46.1824z" fill="#8286EA" p-id="2077"></path><path d="M792.8832 853.8624H137.728a65.792 65.792 0 0 1 0-131.584h655.36a65.792 65.792 0 0 1 0 131.584z m-655.36-100.864a35.072 35.072 0 0 0 0 70.144h655.36a35.072 35.072 0 0 0 0-70.144zM602.88 584.2432a9.4208 9.4208 0 0 1-1.6896 0 10.24 10.24 0 0 1-8.3968-11.8272l5.9392-35.4816a10.24 10.24 0 0 1 20.48 3.3792l-5.9904 35.5328a10.24 10.24 0 0 1-10.3424 8.3968zM377.856 640a10.24 10.24 0 0 1-10.24-10.24v-35.84a10.24 10.24 0 0 1 20.48 0v35.84a10.24 10.24 0 0 1-10.24 10.24zM556.3392 372.1728a10.24 10.24 0 0 1-10.24-10.24v-35.84a10.24 10.24 0 0 1 20.48 0v35.84a10.24 10.24 0 0 1-10.24 10.24zM391.7824 466.688a10.24 10.24 0 0 1-10.24-10.24v-35.84a10.24 10.24 0 0 1 20.48 0v35.84a10.24 10.24 0 0 1-10.24 10.24zM187.0848 389.8368a10.24 10.24 0 0 1-10.24-8.8064l-5.12-35.84a10.24 10.24 0 0 1 20.48-2.9184l5.12 35.84a10.24 10.24 0 0 1-8.6528 11.5712z" fill="#3C122C" p-id="2078"></path><path d="M177.2544 491.52a15.36 15.36 0 0 1-12.5952-6.5024 378.2144 378.2144 0 0 1-48.8448-94.208 15.36 15.36 0 1 1 29.0304-10.24 347.2896 347.2896 0 0 0 44.9536 86.528 15.36 15.36 0 0 1-3.7376 21.4016 14.7968 14.7968 0 0 1-8.8064 3.0208zM116.1216 341.2992a15.36 15.36 0 0 1-15.36-13.5168 167.7824 167.7824 0 0 1-1.4336-27.4944 15.36 15.36 0 0 1 30.72 1.6384 144.7936 144.7936 0 0 0 1.28 22.2208A15.36 15.36 0 0 1 117.76 341.1968z" fill="#FFFFFF" p-id="2079"></path></svg>