<?xml version="1.0" standalone="no"?><!DOCTYPE svg PUBLIC "-//W3C//DTD SVG 1.1//EN" "http://www.w3.org/Graphics/SVG/1.1/DTD/svg11.dtd"><svg t="1767974769560" class="icon" viewBox="0 0 1024 1024" version="1.1" xmlns="http://www.w3.org/2000/svg" p-id="1692" xmlns:xlink="http://www.w3.org/1999/xlink" width="200" height="200"><path d="M707.0208 292.7616c-30.2592-97.8944-59.6992-171.9296-59.6992-171.9296H192.3584s-29.44 74.0352-59.6992 171.9296z" fill="#FFFFFF" p-id="1693"></path><path d="M600.7296 292.7616h106.2912c-30.2592-97.8944-59.6992-171.9296-59.6992-171.9296h-97.28z" fill="#FCE8D0" p-id="1694"></path><path d="M325.4272 288.7168h80.4864L340.7872 58.7264A38.7584 38.7584 0 1 0 266.24 79.7184z" fill="#DBA2B3" p-id="1695"></path><path d="M405.9136 304.0768H325.4272a15.36 15.36 0 0 1-14.7968-11.1616L251.392 83.9168a54.1184 54.1184 0 0 1 104.192-29.3376l65.1264 229.9904a15.36 15.36 0 0 1-14.7968 19.5072z m-68.864-30.72h48.5376l-59.5968-210.432a23.3984 23.3984 0 1 0-45.0048 12.6464z" fill="#3C122C" p-id="1696"></path><path d="M762.2656 298.9568H478.0544v485.8368h242.8928a242.8928 242.8928 0 0 0 242.8928-242.8928v-41.3184a201.6256 201.6256 0 0 0-201.5744-201.6256z m112.64 253.0304a151.808 151.808 0 0 1-151.808 151.808h-155.904V390.2976h194.048a113.5104 113.5104 0 0 1 113.4592 113.5104z" fill="#C1E5EF" p-id="1697"></path><path d="M821.6576 307.9168a201.2672 201.2672 0 0 1 92.7744 169.6256v41.3184c0 150.0672-108.7488 222.4128-242.8928 222.4128h-19.2v43.52h68.608a242.8928 242.8928 0 0 0 242.8928-242.8928v-41.3184a201.6256 201.6256 0 0 0-142.1824-192.6656z" fill="#A6AAED" p-id="1698"></path><path d="M720.9472 800.1536H478.0544a15.36 15.36 0 0 1-15.36-15.36V298.9568a15.36 15.36 0 0 1 15.36-15.36h284.2112a217.1904 217.1904 0 0 1 216.9344 216.9856v41.2672a258.56 258.56 0 0 1-258.2528 258.304z m-227.5328-30.72h227.5328a227.7888 227.7888 0 0 0 227.5328-227.584v-41.2672a186.4704 186.4704 0 0 0-186.2144-186.2656H493.4144z m229.4784-50.3296h-155.6992a15.36 15.36 0 0 1-15.36-15.36V390.2976a15.36 15.36 0 0 1 15.36-15.36h194.048a128.9728 128.9728 0 0 1 128.8192 128.8704v48.1792a167.3216 167.3216 0 0 1-167.168 167.1168z m-140.3392-30.72h140.3392a136.5504 136.5504 0 0 0 136.448-136.3968V503.808a98.2528 98.2528 0 0 0-98.0992-98.1504h-178.688z" fill="#3C122C" p-id="1699"></path><path d="M67.4816 624.64c0 154.3168 97.28 298.6496 133.12 346.8288A42.1376 42.1376 0 0 0 234.496 988.16h370.688a42.1376 42.1376 0 0 0 33.8432-16.9472c35.84-48.1792 133.12-192.512 133.12-346.8288 0-72.448-18.2784-163.1232-40.96-247.552H108.3392c-22.5792 84.5824-40.8576 175.2576-40.8576 247.808z" fill="#E8A284" p-id="1700"></path><path d="M666.4192 624.64c0-72.448-18.2784-163.1232-40.96-247.552h-517.12c-22.5792 84.4288-40.96 175.104-40.96 247.552 0 113.92 52.9408 222.3616 95.1296 290.7136h366.8992a72.5504 72.5504 0 0 0 63.7952-37.7856c36.5568-67.328 73.216-158.2592 73.216-252.928z" fill="#F4DAB5" p-id="1701"></path><path d="M441.3952 740.2496m19.968 0l102.144 0q19.968 0 19.968 19.968l0 102.144q0 19.968-19.968 19.968l-102.144 0q-19.968 0-19.968-19.968l0-102.144q0-19.968 19.968-19.968Z" fill="#C1E5EF" p-id="1702"></path><path d="M353.566099 618.632058m14.119508 14.119508l77.367664 77.367665q14.119508 14.119508 0 28.239016l-77.367664 77.367664q-14.119508 14.119508-28.239016 0l-77.367665-77.367664q-14.119508-14.119508 0-28.239016l77.367665-77.367665q14.119508-14.119508 28.239016 0Z" fill="#C1E5EF" p-id="1703"></path><path d="M563.5072 892.5696h-102.4a30.208 30.208 0 0 1-30.1568-30.208v-102.4a30.1568 30.1568 0 0 1 30.1568-30.1568h102.4a30.208 30.208 0 0 1 30.208 30.1568v102.4a30.2592 30.2592 0 0 1-30.208 30.208z m-102.4-142.08a9.6768 9.6768 0 0 0-9.6768 9.6768v102.4a9.728 9.728 0 0 0 9.6768 9.728h102.4a9.728 9.728 0 0 0 9.728-9.728v-102.4a9.728 9.728 0 0 0-9.728-9.6768z" fill="#3C122C" p-id="1704"></path><path d="M353.536 831.8464a30.0032 30.0032 0 0 1-21.2992-8.8576l-77.4144-77.4144a30.1568 30.1568 0 0 1 0-42.6496l77.4144-77.4144a30.1568 30.1568 0 0 1 42.6496 0l77.4144 77.4144a30.208 30.208 0 0 1 0 42.6496l-77.4144 77.4144a30.0032 30.0032 0 0 1-21.3504 8.8576z m0-194.56a9.6768 9.6768 0 0 0-6.8608 2.816l-77.3632 77.312a9.728 9.728 0 0 0 0 13.7216l77.3632 77.3632a9.8816 9.8816 0 0 0 13.7216 0l77.4144-77.3632a9.6768 9.6768 0 0 0 2.816-6.912 9.4208 9.4208 0 0 0-2.816-6.8096L360.3968 640a9.6256 9.6256 0 0 0-6.8608-2.816z" fill="#3C122C" p-id="1705"></path><path d="M705.792 288.7168H133.888A1813.1968 1813.1968 0 0 0 80.0768 501.76h107.9808v58.112a45.2096 45.2096 0 1 0 90.368 0V501.76H375.296v196.9152a39.8336 39.8336 0 1 0 79.6672 0V501.76h81.92v103.424a47.36 47.36 0 0 0 94.72 0V501.76h128a1813.1968 1813.1968 0 0 0-53.8112-213.0432z" fill="#A06056" p-id="1706"></path><path d="M654.7968 501.76h104.8064a1813.1968 1813.1968 0 0 0-53.8112-213.1456h-102.4z" fill="#7C4946" p-id="1707"></path><path d="M415.1296 748.8512a50.1248 50.1248 0 0 1-50.0736-50.0736V512H288.6656v47.872a55.4496 55.4496 0 1 1-110.848 0V512H80.0768a10.24 10.24 0 0 1-10.24-12.032A1786.4704 1786.4704 0 0 1 124.16 285.696a10.24 10.24 0 0 1 9.728-7.2192h571.904a10.24 10.24 0 0 1 9.728 7.2192 1784.064 1784.064 0 0 1 54.1696 214.3744 10.24 10.24 0 0 1-10.24 12.032h-117.76v93.0816a57.6 57.6 0 1 1-115.2 0V512h-61.44v186.6752a50.1248 50.1248 0 0 1-49.92 50.176zM278.4256 491.52H375.296a10.24 10.24 0 0 1 10.24 10.24v196.9152a29.5936 29.5936 0 1 0 59.1872 0V501.76a10.24 10.24 0 0 1 10.24-10.24h81.92a10.24 10.24 0 0 1 10.24 10.24v103.424a37.12 37.12 0 0 0 74.24 0V501.76a10.24 10.24 0 0 1 10.24-10.24H747.52a1799.168 1799.168 0 0 0-49.1008-192.6656H141.4656A1802.24 1802.24 0 0 0 92.16 491.52h95.8976a10.24 10.24 0 0 1 10.24 10.24v58.112a34.9696 34.9696 0 1 0 69.888 0V501.76a10.24 10.24 0 0 1 10.24-10.24z" fill="#3C122C" p-id="1708"></path><path d="M605.184 1003.52H234.496a57.9072 57.9072 0 0 1-46.08-23.0912c-40.96-54.8352-136.2432-199.2704-136.2432-356.0448 0-80.0768 21.248-190.208 63.0784-327.3728 31.0784-101.6832 62.5664-181.1968 62.8736-182.016a15.36 15.36 0 0 1 14.2848-9.6768h454.9632a15.36 15.36 0 0 1 14.2848 9.6768c5.12 12.9536 125.952 319.232 125.952 509.3888 0 156.7744-95.2832 301.2096-136.2432 356.0448a57.9072 57.9072 0 0 1-46.1824 23.0912zM202.8544 136.192c-20.48 54.1696-120.0128 322.56-120.0128 488.3456 0 38.3488 9.3696 176.0768 130.0992 337.92A27.136 27.136 0 0 0 234.496 972.8h370.688a27.136 27.136 0 0 0 21.5552-10.752c120.7808-161.4336 130.0992-299.1616 130.0992-337.408 0-165.888-99.2768-434.176-120.0128-488.3456z" fill="#3C122C" p-id="1709"></path><path d="M165.9904 458.4448a15.36 15.36 0 0 1-4.3008-0.6144 15.36 15.36 0 0 1-10.24-19.0464l26.112-89.7024a15.36 15.36 0 0 1 29.4912 8.6016l-26.112 89.6512a15.36 15.36 0 0 1-14.9504 11.1104zM151.808 749.568a15.36 15.36 0 0 1-13.824-8.6016c-20.48-41.8816-20.48-98.048-20.48-100.4032a15.36 15.36 0 0 1 30.72 0c0 0.512 0.256 51.5072 17.5616 87.04a15.36 15.36 0 0 1-7.0656 20.48 15.6672 15.6672 0 0 1-6.912 1.4848z m-3.7888-109.0048z" fill="#FFFFFF" p-id="1710"></path><path d="M580.352 415.5904a10.24 10.24 0 0 1-10.24-10.24v-35.84a10.24 10.24 0 0 1 20.48 0v35.84a10.24 10.24 0 0 1-10.24 10.24zM478.0544 460.1856a10.24 10.24 0 0 1-10.24-10.24v-35.84a10.24 10.24 0 0 1 20.48 0v35.84a10.24 10.24 0 0 1-10.24 10.24zM335.3088 404.48a10.24 10.24 0 0 1-10.24-10.24v-35.84a10.24 10.24 0 0 1 20.48 0v35.84a10.24 10.24 0 0 1-10.24 10.24zM628.5312 744.448a10.24 10.24 0 0 1-10.24-10.24v-35.84a10.24 10.24 0 0 1 20.48 0v35.84a10.24 10.24 0 0 1-10.24 10.24zM344.576 913.3056a10.24 10.24 0 0 1-10.24-10.24v-35.84a10.24 10.24 0 0 1 20.48 0v35.84a10.24 10.24 0 0 1-10.24 10.24zM201.8304 857.5488a10.24 10.24 0 0 1-10.24-10.24v-35.84a10.24 10.24 0 0 1 20.48 0v35.84a10.24 10.24 0 0 1-10.24 10.24z" fill="#3C122C" p-id="1711"></path></svg>