<?xml version="1.0" standalone="no"?><!DOCTYPE svg PUBLIC "-//W3C//DTD SVG 1.1//EN" "http://www.w3.org/Graphics/SVG/1.1/DTD/svg11.dtd"><svg t="1767975416072" class="icon" viewBox="0 0 1024 1024" version="1.1" xmlns="http://www.w3.org/2000/svg" p-id="1877" xmlns:xlink="http://www.w3.org/1999/xlink" width="200" height="200"><path d="M884.6336 607.744a58.7776 58.7776 0 0 1-57.2416-46.08l-56.8832-256h-72.4992a58.7264 58.7264 0 0 1 0-117.4016h119.6032a58.6752 58.6752 0 0 1 57.2928 46.08l67.1232 302.08a58.7264 58.7264 0 0 1-44.5952 70.0416 57.7024 57.7024 0 0 1-12.8 1.28z" fill="#C1E5EF" p-id="1878"></path><path d="M942.08 536.2688l-67.1232-302.08a58.6752 58.6752 0 0 0-57.2928-46.08h-20.48a58.4704 58.4704 0 0 1 23.0912 34.9184l67.1232 302.08a58.6752 58.6752 0 0 1-40.2432 68.8128 58.5728 58.5728 0 0 0 37.4784 13.6704 57.7024 57.7024 0 0 0 12.8-1.4336 58.7264 58.7264 0 0 0 44.6464-69.888z" fill="#A6AAED" p-id="1879"></path><path d="M884.6336 623.104a74.5472 74.5472 0 0 1-72.2432-58.0608l-54.2208-244.1728h-60.16a74.0864 74.0864 0 0 1 0-148.1216h119.6032a73.6256 73.6256 0 0 1 72.2944 58.0096l67.1232 302.08a74.1888 74.1888 0 0 1-72.3968 90.1632z m-186.624-419.84a43.3664 43.3664 0 0 0 0 86.6816h72.4992a15.36 15.36 0 0 1 15.0016 12.1344l56.8832 256a43.5712 43.5712 0 0 0 42.24 33.9968 42.3424 42.3424 0 0 0 9.472-1.0752 43.3664 43.3664 0 0 0 32.9216-51.712L860.16 237.4144a43.008 43.008 0 0 0-42.2912-33.9456z" fill="#3C122C" p-id="1880"></path><path d="M145.6128 52.4288L663.9616 92.16a39.2704 39.2704 0 0 1 35.84 35.2256l74.2912 740.4544a94.7712 94.7712 0 0 1-94.2592 104.192H180.8384A94.72 94.72 0 0 1 87.6544 860.16L198.0416 251.8016 109.5168 112.64a39.2192 39.2192 0 0 1 36.096-60.2112z" fill="#C1E5EF" p-id="1881"></path><path d="M774.2976 867.6352L700.0064 127.1808a39.2704 39.2704 0 0 0-35.84-35.2256l-37.12-2.816a39.936 39.936 0 0 1 3.1744 11.8784l74.24 740.4544a94.72 94.72 0 0 1-94.208 104.192H115.5072a94.1568 94.1568 0 0 0 65.3312 26.1632h499.2a94.7712 94.7712 0 0 0 94.2592-104.192z" fill="#A6AAED" p-id="1882"></path><path d="M198.0416 251.8016L87.6544 860.16a94.72 94.72 0 0 0 93.184 111.616h499.2a94.7712 94.7712 0 0 0 94.2592-104.192L712.0384 246.8864h-517.12z" fill="#FAF1A9" p-id="1883"></path><path d="M774.2976 867.6352L712.0384 246.8864h-67.328l58.9824 588.288a66.56 66.56 0 0 1-66.1504 73.0624H107.1104a94.2592 94.2592 0 0 1-16.2304-1.3824 94.7712 94.7712 0 0 0 89.9584 64.9728h499.2a94.7712 94.7712 0 0 0 94.2592-104.192z" fill="#F5DF6E" p-id="1884"></path><path d="M680.0384 987.1872h-499.2a110.08 110.08 0 0 1-108.288-129.7408L181.8624 254.976 96.5632 120.8832a54.5792 54.5792 0 0 1 50.2272-83.7632L665.088 76.8a54.528 54.528 0 0 1 50.176 48.9984l74.2912 740.4544a110.1312 110.1312 0 0 1-109.5168 121.088zM142.4896 67.6864a23.8592 23.8592 0 0 0-20.0192 36.7104l88.5248 139.1616a15.36 15.36 0 0 1 2.2016 11.008L102.7584 862.9248a79.36 79.36 0 0 0 78.08 93.5424h499.2a79.4112 79.4112 0 0 0 78.9504-87.296l-74.24-740.4544a23.9616 23.9616 0 0 0-21.9648-21.1968L144.4352 67.7376z" fill="#3C122C" p-id="1885"></path><path d="M707.3792 262.5024H204.288a10.24 10.24 0 0 1 0-20.48h503.0912a10.24 10.24 0 0 1 0 20.48z" fill="#3C122C" p-id="1886"></path><path d="M491.3152 456.9088m-148.0192 0a148.0192 148.0192 0 1 0 296.0384 0 148.0192 148.0192 0 1 0-296.0384 0Z" fill="#FAF1A9" p-id="1887"></path><path d="M545.9456 319.3856a148.0192 148.0192 0 0 1-149.2992 251.2896 148.0192 148.0192 0 1 0 149.2992-251.2896z" fill="#F5DF6E" p-id="1888"></path><path d="M491.52 615.1168a158.2592 158.2592 0 1 1 158.2592-158.208A158.4128 158.4128 0 0 1 491.52 615.1168z m0-295.9872a137.7792 137.7792 0 1 0 137.7792 137.7792A137.9328 137.9328 0 0 0 491.52 319.1296z" fill="#3C122C" p-id="1889"></path><path d="M491.52 565.4528a108.544 108.544 0 1 1 108.544-108.544 108.6464 108.6464 0 0 1-108.544 108.544zM491.52 368.64a88.064 88.064 0 1 0 88.064 88.064A88.1664 88.1664 0 0 0 491.52 368.64z" fill="#3C122C" p-id="1890"></path><path d="M491.52 560.4864a10.24 10.24 0 0 1-10.24-10.24V366.8992a10.24 10.24 0 0 1 20.48 0v183.3472a10.24 10.24 0 0 1-10.24 10.24z" fill="#3C122C" p-id="1891"></path><path d="M582.9632 468.7872h-183.296a10.24 10.24 0 0 1 0-20.48h183.296a10.24 10.24 0 1 1 0 20.48z" fill="#3C122C" p-id="1892"></path><path d="M556.1344 533.6064a10.24 10.24 0 0 1-7.2192-2.9696L419.2768 400.9984a10.24 10.24 0 0 1 14.4384-14.4896L563.2 516.1472a10.24 10.24 0 0 1-7.2192 17.4592z" fill="#3C122C" p-id="1893"></path><path d="M426.496 533.6064a10.24 10.24 0 0 1-7.2192-2.9696 10.24 10.24 0 0 1 0-14.4896l129.6384-129.6384a10.24 10.24 0 0 1 14.2848 14.4896l-129.4848 129.6384a10.24 10.24 0 0 1-7.2192 2.9696z" fill="#3C122C" p-id="1894"></path><path d="M320.4096 776.7552m-148.0192 0a148.0192 148.0192 0 1 0 296.0384 0 148.0192 148.0192 0 1 0-296.0384 0Z" fill="#FAF1A9" p-id="1895"></path><path d="M375.04 639.232a147.968 147.968 0 0 1-149.2992 251.2896 147.968 147.968 0 1 0 149.2992-251.2896z" fill="#F5DF6E" p-id="1896"></path><path d="M320.4096 935.0144a158.2592 158.2592 0 1 1 158.208-158.2592 158.4128 158.4128 0 0 1-158.208 158.2592z m0-295.9872a137.7792 137.7792 0 1 0 137.728 137.728 137.9328 137.9328 0 0 0-137.728-137.728z" fill="#3C122C" p-id="1897"></path><path d="M320.4096 885.2992a108.544 108.544 0 1 1 108.544-108.544 108.6464 108.6464 0 0 1-108.544 108.544z m0-196.5568a88.064 88.064 0 1 0 88.064 88.0128 88.1152 88.1152 0 0 0-88.064-88.0128z" fill="#3C122C" p-id="1898"></path><path d="M320.4096 880.3328a10.24 10.24 0 0 1-10.24-10.24v-183.296a10.24 10.24 0 0 1 20.48 0v183.296a10.24 10.24 0 0 1-10.24 10.24z" fill="#3C122C" p-id="1899"></path><path d="M412.0576 788.48H228.7104a10.24 10.24 0 1 1 0-20.48h183.3472a10.24 10.24 0 0 1 0 20.48z" fill="#3C122C" p-id="1900"></path><path d="M385.2288 853.504a10.24 10.24 0 0 1-7.2704-3.0208L248.32 720.8448a10.24 10.24 0 1 1 14.4896-14.2848l129.6384 129.6384a10.24 10.24 0 0 1-7.2192 17.4592z" fill="#3C122C" p-id="1901"></path><path d="M255.5904 853.504a10.24 10.24 0 0 1-7.2704-3.0208 10.24 10.24 0 0 1 0-14.4384L377.9584 706.56a10.24 10.24 0 1 1 14.4896 14.4384l-129.6384 129.4848a10.24 10.24 0 0 1-7.2192 3.0208zM559.616 794.3168a10.24 10.24 0 0 1-10.24-10.24v-35.84a10.24 10.24 0 0 1 20.48 0v35.84a10.24 10.24 0 0 1-10.24 10.24zM625.3568 706.56a10.24 10.24 0 0 1-10.24-10.24v-35.84a10.24 10.24 0 0 1 20.48 0v35.84a10.24 10.24 0 0 1-10.24 10.24zM682.0864 860.5184a10.24 10.24 0 0 1-10.24-10.24v-35.84a10.24 10.24 0 0 1 20.48 0v35.84a10.24 10.24 0 0 1-10.24 10.24zM283.6992 569.6512a10.24 10.24 0 0 1-10.24-10.24v-35.84a10.24 10.24 0 0 1 20.48 0v35.84a10.24 10.24 0 0 1-10.24 10.24z" fill="#3C122C" p-id="1902"></path><path d="M217.2928 565.6064a16.128 16.128 0 0 1-2.6624 0 15.36 15.36 0 0 1-12.4416-17.8176L225.28 418.2016a15.36 15.36 0 1 1 30.2592 5.12L232.448 552.96a15.36 15.36 0 0 1-15.1552 12.6464zM250.88 376.1664a16.128 16.128 0 0 1-2.6624 0A15.36 15.36 0 0 1 235.52 358.0928l5.12-26.7776a15.36 15.36 0 1 1 30.2592 5.376L266.24 363.52a15.36 15.36 0 0 1-15.36 12.6464z" fill="#FFFFFF" p-id="1903"></path></svg>